<svg id="visual" viewBox="0 0 900 600" width="900" height="600" xmlns="http://www.w3.org/2000/svg" xmlns:xlink="http://www.w3.org/1999/xlink" version="1.1"><rect x="0" y="0" width="900" height="600" fill="#cfbba6"></rect><path d="M0 344L25 354.2C50 364.3 100 384.7 150 387.8C200 391 250 377 300 359C350 341 400 319 450 307.2C500 295.3 550 293.7 600 294.8C650 296 700 300 750 303.8C800 307.7 850 311.3 875 313.2L900 315L900 601L875 601C850 601 800 601 750 601C700 601 650 601 600 601C550 601 500 601 450 601C400 601 350 601 300 601C250 601 200 601 150 601C100 601 50 601 25 601L0 601Z" fill="#cac2b3" stroke-linecap="round" stroke-linejoin="miter"></path></svg>